<svg width="23" height="23" viewBox="0 0 23 23" fill="none" xmlns="http://www.w3.org/2000/svg">
<path fill-rule="evenodd" clip-rule="evenodd" d="M11.5 2.875L11.5 6.46875L13.6562 6.46875C14.0532 6.46875 14.375 6.79055 14.375 7.1875L14.375 15.8125C14.375 16.2095 14.0532 16.5312 13.6562 16.5312L11.5 16.5312L11.5 20.125C11.5 20.3156 11.4243 20.4984 11.2895 20.6332C11.0088 20.9139 10.5537 20.9139 10.273 20.6332L1.64801 12.0082C1.36733 11.7275 1.36733 11.2725 1.64801 10.9918L10.273 2.36677C10.4078 2.23198 10.5906 2.15625 10.7812 2.15625C11.1782 2.15625 11.5 2.47805 11.5 2.875ZM10.0625 7.1875L10.0625 4.61022L3.17271 11.5L10.0625 18.3898L10.0625 15.8125C10.0625 15.4155 10.3843 15.0937 10.7812 15.0937L12.9375 15.0937L12.9375 7.90625L10.7812 7.90625C10.3843 7.90625 10.0625 7.58445 10.0625 7.1875Z" fill="white"/>
<path d="M20.125 15.8125L20.125 7.1875C20.125 6.79054 19.8032 6.46875 19.4062 6.46875C19.0093 6.46875 18.6875 6.79055 18.6875 7.1875L18.6875 15.8125C18.6875 16.2095 19.0093 16.5312 19.4063 16.5312C19.8032 16.5312 20.125 16.2095 20.125 15.8125Z" fill="white"/>
<path d="M17.25 15.8125L17.25 7.1875C17.25 6.79055 16.9282 6.46875 16.5312 6.46875C16.1343 6.46875 15.8125 6.79055 15.8125 7.1875L15.8125 15.8125C15.8125 16.2095 16.1343 16.5312 16.5312 16.5312C16.9282 16.5312 17.25 16.2095 17.25 15.8125Z" fill="white"/>
</svg>
