<svg width="23" height="23" viewBox="0 0 23 23" fill="none" xmlns="http://www.w3.org/2000/svg">
<path fill-rule="evenodd" clip-rule="evenodd" d="M11.5 20.125L11.5 16.5313L9.34375 16.5313C8.9468 16.5313 8.625 16.2095 8.625 15.8125L8.625 7.1875C8.625 6.79055 8.9468 6.46875 9.34375 6.46875L11.5 6.46875L11.5 2.875C11.5 2.68438 11.5757 2.50156 11.7105 2.36677C11.9912 2.08608 12.4463 2.08608 12.727 2.36677L21.352 10.9918C21.6327 11.2725 21.6327 11.7275 21.352 12.0082L12.727 20.6332C12.5922 20.768 12.4094 20.8437 12.2188 20.8437C11.8218 20.8437 11.5 20.522 11.5 20.125ZM12.9375 15.8125L12.9375 18.3898L19.8273 11.5L12.9375 4.61022L12.9375 7.1875C12.9375 7.58446 12.6157 7.90625 12.2188 7.90625L10.0625 7.90625L10.0625 15.0938L12.2188 15.0938C12.6157 15.0938 12.9375 15.4155 12.9375 15.8125Z" fill="white"/>
<path d="M2.875 7.1875L2.875 15.8125C2.875 16.2095 3.1968 16.5313 3.59375 16.5313C3.9907 16.5313 4.3125 16.2095 4.3125 15.8125L4.3125 7.1875C4.3125 6.79055 3.9907 6.46875 3.59375 6.46875C3.19679 6.46875 2.875 6.79055 2.875 7.1875Z" fill="white"/>
<path d="M5.75 7.1875L5.75 15.8125C5.75 16.2095 6.0718 16.5313 6.46875 16.5313C6.8657 16.5313 7.1875 16.2095 7.1875 15.8125L7.1875 7.1875C7.1875 6.79055 6.8657 6.46875 6.46875 6.46875C6.07179 6.46875 5.75 6.79055 5.75 7.1875Z" fill="white"/>
</svg>
