<svg width="18" height="18" viewBox="0 0 18 18" fill="none" xmlns="http://www.w3.org/2000/svg">
<path fill-rule="evenodd" clip-rule="evenodd" d="M14.3226 6.44059L16.1437 7.45305C16.3711 8.47155 16.3734 9.52734 16.1507 10.5468L14.3226 11.5593C14.1971 11.827 14.0489 12.0834 13.8797 12.3258L13.9148 14.414C13.1431 15.1173 12.2295 15.6471 11.2358 15.9679L9.44286 14.8922C9.14801 14.9132 8.85193 14.9132 8.55695 14.8922L6.77098 15.9609C5.77425 15.646 4.85771 15.1181 4.0851 14.414L4.12025 12.3328C3.95244 12.0871 3.80426 11.8284 3.67723 11.5593L1.85625 10.5468C1.6324 9.52795 1.62993 8.47292 1.84911 7.45305L3.67723 6.44059C3.80275 6.17294 3.95093 5.91654 4.12025 5.67416L4.0851 3.58586C4.85689 2.8826 5.77026 2.35271 6.76398 2.03198L8.55695 3.10775C8.85193 3.08667 9.14801 3.08667 9.44286 3.10775L11.2288 2.03899C12.2257 2.35395 13.1421 2.88177 13.9148 3.58586L13.8797 5.67416C14.0489 5.91654 14.1971 6.17294 14.3226 6.44059ZM7.12488 11.8062C7.67996 12.177 8.33241 12.3749 8.99997 12.3749C9.89508 12.3749 10.7535 12.0194 11.3865 11.3864C12.0193 10.7535 12.375 9.89503 12.375 8.99992C12.375 8.33244 12.1769 7.67992 11.8062 7.1249C11.4352 6.56989 10.9082 6.1373 10.2916 5.88187C9.67481 5.62643 8.99612 5.55956 8.34148 5.68981C7.68683 5.82 7.08546 6.14149 6.61346 6.61349C6.14146 7.08549 5.81998 7.68685 5.68979 8.3415C5.5596 8.99622 5.62634 9.67483 5.88178 10.2915C6.13734 10.9082 6.56993 11.4353 7.12488 11.8062Z" fill="black" fill-opacity="0.1"/>
<path fill-rule="evenodd" clip-rule="evenodd" d="M9 5.0625C9 5.0625 10.631 5.0625 11.7842 6.21577C11.7842 6.21577 12.9375 7.36903 12.9375 9C12.9375 9 12.9375 10.631 11.7842 11.7842C11.7842 11.7842 10.631 12.9375 9 12.9375C9 12.9375 7.36903 12.9375 6.21577 11.7842C6.21577 11.7842 5.0625 10.631 5.0625 9C5.0625 9 5.0625 7.36903 6.21577 6.21577C6.21577 6.21577 7.36903 5.0625 9 5.0625ZM9 6.1875C9 6.1875 7.83502 6.1875 7.01126 7.01126C7.01126 7.01126 6.1875 7.83502 6.1875 9C6.1875 9 6.1875 10.165 7.01126 10.9887C7.01126 10.9887 7.83502 11.8125 9 11.8125C9 11.8125 10.165 11.8125 10.9887 10.9887C10.9887 10.9887 11.8125 10.165 11.8125 9C11.8125 9 11.8125 7.83502 10.9887 7.01126C10.9887 7.01126 10.165 6.1875 9 6.1875Z" fill="white"/>
<path fill-rule="evenodd" clip-rule="evenodd" d="M14.4771 3.59536L14.445 5.50659C14.445 5.50659 14.6117 5.76254 14.7502 6.03476L16.417 6.96145C16.5573 7.03949 16.6576 7.17378 16.6926 7.33051C16.6926 7.33051 17.0649 8.99787 16.7002 10.6669C16.6657 10.825 16.5647 10.9605 16.4232 11.0389L14.75 11.9656C14.75 11.9656 14.6115 12.2376 14.445 12.4933L14.4771 14.4045C14.4799 14.5661 14.413 14.721 14.2936 14.8298C14.2936 14.8298 13.0324 15.9791 11.4086 16.5032C11.2541 16.5531 11.0856 16.5338 10.9464 16.4503L9.30218 15.4637C9.30218 15.4637 8.9997 15.4773 8.69722 15.4637L7.05982 16.4436C6.92176 16.5262 6.75494 16.5457 6.60152 16.4973C6.60152 16.4973 4.97044 15.9819 3.70615 14.8298C3.58675 14.721 3.51989 14.566 3.52262 14.4045L3.55483 12.4976C3.55483 12.4976 3.38912 12.239 3.24986 11.9653L1.5828 11.0385C1.44186 10.9601 1.34134 10.825 1.30674 10.6675C1.30674 10.6675 0.940836 9.00203 1.29916 7.33488C1.3333 7.17604 1.43445 7.03972 1.57657 6.96101L3.24979 6.0343C3.24979 6.0343 3.38822 5.76232 3.55479 5.50659L3.52262 3.59536C3.5199 3.43383 3.58676 3.27893 3.70617 3.17012C3.70617 3.17012 4.96736 2.02086 6.59115 1.49668C6.74564 1.44681 6.91414 1.46612 7.05335 1.54964L8.69759 2.53619C8.69759 2.53619 9.00007 2.52265 9.30254 2.5362L10.9399 1.55634C11.078 1.47372 11.2448 1.45418 11.3982 1.50265C11.3982 1.50265 13.0293 2.01796 14.2936 3.17014C14.413 3.27895 14.4799 3.43384 14.4771 3.59536ZM13.3171 5.6647L13.3479 3.83651C13.3479 3.83651 12.4294 3.05852 11.2954 2.65467L9.7317 3.59044C9.63268 3.6497 9.51782 3.67707 9.40272 3.66883C9.40272 3.66883 8.99988 3.64002 8.59705 3.66883C8.48172 3.67708 8.36665 3.64959 8.26751 3.59011L6.69875 2.64885C6.69875 2.64885 5.56881 3.05907 4.65184 3.83645L4.68262 5.6647C4.68461 5.78313 4.64917 5.89917 4.58134 5.99627C4.58134 5.99627 4.35461 6.32088 4.18652 6.67937C4.13624 6.78662 4.05338 6.87526 3.94976 6.93265L2.35058 7.81835C2.35058 7.81835 2.14093 9.00032 2.35632 10.1813L3.95056 11.0677C4.0534 11.1249 4.13572 11.2129 4.18593 11.3193C4.18593 11.3193 4.35766 11.6832 4.58466 12.0155C4.65036 12.1116 4.68458 12.2258 4.68262 12.3423L4.65185 14.1634C4.65185 14.1634 5.57036 14.9414 6.70435 15.3452L8.26807 14.4095C8.36709 14.3502 8.48194 14.3228 8.59705 14.3311C8.59705 14.3311 8.99988 14.3599 9.40272 14.3311C9.51804 14.3228 9.63311 14.3503 9.73226 14.4098L11.301 15.3511C11.301 15.3511 12.431 14.9408 13.3479 14.1635L13.3171 12.3352C13.3152 12.2168 13.3506 12.1007 13.4184 12.0036C13.4184 12.0036 13.6452 11.679 13.8132 11.3205C13.8635 11.2133 13.9464 11.1246 14.05 11.0673L15.6502 10.181C15.6502 10.181 15.8634 8.99958 15.6444 7.81911L14.0492 6.9322C13.946 6.87479 13.8634 6.78634 13.8132 6.67937C13.8132 6.67937 13.6452 6.32088 13.4184 5.99627C13.3506 5.89917 13.3152 5.78313 13.3171 5.6647Z" fill="white"/>
</svg>
